# Blender v2.78 (sub 0) OBJ File: 'Raw meat.blend'
# www.blender.org
o Raw_meat_Plane.001
v 1.429806 -0.280213 0.000000
v -1.590161 -0.348789 0.000000
v 1.456748 -0.867750 0.000000
v -1.521506 -0.808534 0.000000
v 1.272565 -1.028321 0.000000
v -1.456334 -0.987995 0.000000
v 1.153554 -1.204003 0.000000
v -1.462001 -1.163678 0.000000
v 1.130885 -1.634709 0.000000
v -1.427998 -1.594384 0.000000
v 1.187557 -1.901067 0.000000
v -1.371326 -1.860742 0.000000
v 1.176223 -1.991742 0.000000
v -1.269317 -2.036425 0.000000
v -0.761955 -2.088084 0.000000
v -1.087967 -2.093097 0.000000
v 1.227227 -2.326106 0.000000
v -0.574938 -2.167425 0.000000
v 1.227227 -2.371444 0.000000
v -0.110229 -2.252432 0.000000
v 1.136552 -2.484787 0.000000
v -0.008219 -2.365776 0.000000
v 0.688844 -2.671804 0.000000
v 0.065454 -2.581129 0.000000
v 0.267147 -2.824818 0.000000
v 0.152788 -2.734143 0.000000
v 1.146447 -0.042191 0.000000
v -1.607162 0.217929 0.000000
v 1.078441 0.150493 0.000000
v -1.578826 0.410613 0.000000
v 1.254124 0.343177 0.000000
v -1.516487 0.603298 0.000000
v 1.248456 0.496191 0.000000
v -1.488151 0.756312 0.000000
v 0.970764 0.785218 0.000000
v -1.437146 1.045338 0.000000
v 0.585396 1.147918 0.000000
v -1.238795 1.345699 0.000000
v -0.003992 1.295264 0.000000
v -1.119784 1.447709 0.000000
v -0.385016 1.470947 0.000000
v -0.761428 1.561053 0.000000
v 1.606186 -0.219929 0.314150
v -1.763479 -0.296446 0.314150
v 1.636248 -0.875501 0.314150
v -1.686875 -0.809428 0.314150
v 1.430737 -1.054664 0.314150
v -1.614156 -1.009669 0.314150
v 1.297944 -1.250690 0.314150
v -1.620479 -1.205695 0.314150
v 1.272651 -1.731270 0.314150
v -1.582539 -1.686275 0.314150
v 1.335885 -2.028470 0.314150
v -1.519305 -1.983476 0.314150
v 1.323238 -2.129645 0.314150
v -1.405483 -2.179502 0.314150
v -0.839371 -2.237143 0.314150
v -1.203133 -2.242736 0.314150
v 1.380149 -2.502727 0.314150
v -0.630698 -2.325671 0.314150
v 1.380148 -2.553314 0.314150
v -0.112178 -2.420523 0.314150
v 1.278973 -2.679783 0.314150
v 0.001644 -2.546991 0.314150
v 0.779424 -2.888455 0.314150
v 0.083848 -2.787281 0.314150
v 0.308896 -3.059188 0.314150
v 0.181294 -2.958013 0.314150
v 1.290015 0.045654 0.314150
v -1.782449 0.335895 0.314150
v 1.214134 0.260650 0.314150
v -1.750832 0.550892 0.314150
v 1.410160 0.475647 0.314150
v -1.681275 0.765888 0.314150
v 1.403837 0.646379 0.314150
v -1.649657 0.936620 0.314150
v 1.093989 0.968873 0.314150
v -1.592747 1.259115 0.314150
v 0.663996 1.373572 0.314150
v -1.371427 1.594256 0.314150
v 0.006361 1.537981 0.314150
v -1.238635 1.708078 0.314150
v -0.418785 1.734007 0.314150
v -0.838783 1.834546 0.314150
v 1.272728 -0.333900 0.459610
v -1.435807 -0.395405 0.459610
v 1.296891 -0.860848 0.459610
v -1.374233 -0.807739 0.459610
v 1.131701 -1.004860 0.459610
v -1.315781 -0.968693 0.459610
v 1.024963 -1.162425 0.459610
v -1.320864 -1.126258 0.459610
v 1.004632 -1.548715 0.459610
v -1.290368 -1.512548 0.459610
v 1.055460 -1.787605 0.459610
v -1.239540 -1.751438 0.459610
v 1.045295 -1.868929 0.459610
v -1.148050 -1.909003 0.459610
v -0.693010 -1.955336 0.459610
v -0.985402 -1.959831 0.459610
v 1.091039 -2.168812 0.459610
v -0.525279 -2.026495 0.459610
v 1.091039 -2.209474 0.459610
v -0.108492 -2.102736 0.459610
v 1.009714 -2.311129 0.459610
v -0.017003 -2.204391 0.459610
v 0.608176 -2.478860 0.459610
v 0.049073 -2.397536 0.459610
v 0.229966 -2.616095 0.459610
v 0.127400 -2.534770 0.459610
v 1.018589 -0.120424 0.459610
v -1.451056 0.112871 0.459610
v 0.957596 0.052389 0.459610
v -1.425642 0.285685 0.459610
v 1.115162 0.225203 0.459610
v -1.369732 0.458499 0.459610
v 1.110080 0.362438 0.459610
v -1.344318 0.595734 0.459610
v 0.861024 0.621659 0.459610
v -1.298573 0.854954 0.459610
v 0.515396 0.946956 0.459610
v -1.120676 1.124341 0.459610
v -0.013211 1.079107 0.459610
v -1.013938 1.215831 0.459610
v -0.354943 1.236673 0.459610
v -0.692538 1.317486 0.459610
vt 0.8830 0.6561
vt 0.8629 0.7428
vt 0.9091 0.7716
vt 0.9315 0.6748
vt 0.5983 0.1943
vt 0.6325 0.2108
vt 0.6521 0.1779
vt 0.6139 0.1596
vt 0.3920 0.1926
vt 0.4232 0.1638
vt 0.4185 0.1255
vt 0.3837 0.1577
vt 0.7401 0.8320
vt 0.7129 0.8389
vt 0.7418 0.8787
vt 0.7721 0.8711
vt 0.2059 0.4985
vt 0.1857 0.4738
vt 0.1536 0.4714
vt 0.1760 0.4990
vt 0.1042 0.4072
vt 0.1314 0.3051
vt 0.0929 0.2832
vt 0.0626 0.3970
vt 0.2754 0.8037
vt 0.2442 0.7790
vt 0.2188 0.8120
vt 0.2536 0.8395
vt 0.8096 0.3301
vt 0.8358 0.4728
vt 0.8789 0.4703
vt 0.8497 0.3111
vt 0.1928 0.1748
vt 0.2522 0.1871
vt 0.2277 0.1515
vt 0.1614 0.1378
vt 0.4622 0.8401
vt 0.4304 0.8243
vt 0.4265 0.8625
vt 0.4621 0.8801
vt 0.3156 0.1981
vt 0.2984 0.1638
vt 0.6667 0.1683
vt 0.6903 0.1305
vt 0.7914 0.8197
vt 0.8294 0.8573
vt 0.1475 0.4560
vt 0.1109 0.4515
vt 0.6445 0.8608
vt 0.5439 0.8567
vt 0.5532 0.8986
vt 0.6654 0.9032
vt 0.2342 0.7351
vt 0.2076 0.7630
vt 0.8670 0.5650
vt 0.9137 0.5732
vt 0.1847 0.1748
vt 0.1524 0.1378
vt 0.3992 0.8257
vt 0.3917 0.8640
vt 0.2683 0.1844
vt 0.2456 0.1485
vt 0.6939 0.1696
vt 0.7206 0.1320
vt 0.8447 0.7716
vt 0.8889 0.8037
vt 0.2351 0.6562
vt 0.2086 0.6750
vt 0.1203 0.4348
vt 0.0806 0.4279
vt 0.6787 0.8539
vt 0.7036 0.8956
vt 0.2210 0.6110
vt 0.1929 0.6245
vt 0.1646 0.1967
vt 0.1300 0.1623
vt 0.3227 0.8174
vt 0.3064 0.8548
vt 0.7452 0.2369
vt 0.7778 0.2070
vt 0.4517 0.1192
vt 0.5561 0.1257
vt 0.5668 0.0831
vt 0.4504 0.0758
vt 0.6872 0.8033
vt 0.7116 0.7972
vt 0.2740 0.2188
vt 0.2207 0.2077
vt 0.7739 0.3471
vt 0.7162 0.2634
vt 0.2144 0.4759
vt 0.2325 0.4981
vt 0.4530 0.1579
vt 0.4274 0.1979
vt 0.8254 0.5577
vt 0.7974 0.4750
vt 0.1557 0.4410
vt 0.1801 0.4599
vt 0.3372 0.7841
vt 0.4058 0.7915
vt 0.2586 0.6395
vt 0.2578 0.7103
vt 0.6565 0.8169
vt 0.6702 0.2031
vt 0.5465 0.1638
vt 0.2460 0.5990
vt 0.8397 0.6394
vt 0.1413 0.4162
vt 0.4338 0.7903
vt 0.6259 0.8230
vt 0.2884 0.2164
vt 0.6458 0.2019
vt 0.8054 0.7431
vt 0.8217 0.7172
vt 0.1954 0.2274
vt 0.1657 0.3246
vt 0.4624 0.8044
vt 0.3308 0.2287
vt 0.5356 0.8193
vt 0.6151 0.2400
vt 0.2668 0.7497
vt 0.7576 0.7861
vt 0.2135 0.2077
vt 0.3994 0.2237
vt 0.5844 0.2253
vt 0.2948 0.7718
vn -0.2237 0.7072 -0.6707
vn 0.8353 0.2948 -0.4642
vn 0.7510 -0.5088 -0.4208
vn -0.8394 0.1554 -0.5208
vn -0.6988 -0.6289 -0.3408
vn 0.2733 -0.7532 -0.5983
vn -0.7404 -0.4299 -0.5167
vn 0.1933 0.7733 -0.6038
vn 0.9190 0.1402 -0.3685
vn -0.8421 -0.3058 -0.4442
vn 0.9049 -0.0476 -0.4230
vn 0.7364 -0.6714 -0.0826
vn -0.8422 0.1486 -0.5183
vn -0.9347 -0.3198 -0.1551
vn -0.8771 -0.0263 -0.4795
vn -0.2598 -0.8314 -0.4913
vn 0.3405 0.7386 -0.5818
vn 0.8991 -0.0000 -0.4377
vn -0.8940 0.0288 -0.4471
vn 0.9151 0.1947 -0.3531
vn 0.8895 0.0329 -0.4557
vn -0.6553 0.4328 -0.6191
vn 0.0139 -0.9047 -0.4258
vn -0.8771 -0.1310 -0.4621
vn -0.8375 -0.4780 -0.2646
vn 0.1827 0.7634 -0.6196
vn -0.8459 0.1244 -0.5187
vn -0.3446 -0.8124 -0.4704
vn 0.6272 -0.5017 -0.5958
vn -0.8868 -0.0700 -0.4567
vn 0.5941 0.5708 -0.5667
vn -0.5553 -0.7003 -0.4487
vn 0.8808 -0.1101 -0.4605
vn 0.8680 0.0398 -0.4950
vn -0.4897 0.5713 -0.6587
vn 0.5734 0.6827 -0.4529
vn 0.6114 -0.7013 -0.3666
vn -0.1592 -0.8701 -0.4665
vn -0.7947 0.2571 -0.5499
vn -0.8599 -0.1830 -0.4765
vn 0.3087 -0.7391 -0.5987
vn 0.5629 0.5981 -0.5705
vn 0.0000 0.0000 -1.0000
vn -0.3663 0.0678 0.9280
vn 0.5196 0.0793 0.8507
vn 0.2279 0.2422 0.9431
vn -0.4161 -0.3745 0.8286
vn 0.3469 -0.3979 0.8493
vn 0.1356 0.2941 0.9461
vn -0.5783 -0.3301 0.7461
vn -0.4292 -0.0339 0.9026
vn 0.0071 -0.4616 0.8871
vn -0.3317 0.1073 0.9373
vn 0.2419 0.2324 0.9421
vn 0.3946 0.0181 0.9187
vn -0.0758 -0.4143 0.9070
vn 0.0690 0.2882 0.9551
vn -0.2724 -0.3436 0.8987
vn -0.4397 0.0142 0.8980
vn -0.3704 0.0545 0.9273
vn 0.4236 -0.0529 0.9043
vn 0.4312 0.0160 0.9021
vn -0.1631 -0.3843 0.9087
vn -0.1753 0.2045 0.9630
vn 0.1200 -0.2873 0.9503
vn -0.4163 -0.1512 0.8966
vn 0.5324 0.1133 0.8389
vn -0.4088 -0.0123 0.9125
vn 0.6999 -0.6382 0.3207
vn -0.1188 -0.3802 0.9173
vn -0.2476 0.1635 0.9550
vn 0.2448 -0.1959 0.9496
vn -0.4207 -0.0628 0.9050
vn -0.0788 0.2492 0.9652
vn 0.1063 -0.2930 0.9502
vn 0.4640 -0.0244 0.8855
vn 0.3993 0.1409 0.9059
vn -0.3252 -0.1888 0.9266
vn 0.4494 -0.0000 0.8933
vn -0.3690 0.0651 0.9272
vn 0.0746 0.2984 0.9515
vn 0.3865 -0.2619 0.8843
vn -0.7965 -0.2725 0.5397
vn 0.2793 0.3325 0.9008
vn -0.4027 -0.0857 0.9113
vn 0.0000 0.0000 1.0000
s off
f 42/1/1 40/2/1 82/3/1 84/4/1
f 27/5/2 29/6/2 71/7/2 69/8/2
f 7/9/3 5/10/3 47/11/3 49/12/3
f 34/13/4 32/14/4 74/15/4 76/16/4
f 20/17/5 22/18/5 64/19/5 62/20/5
f 25/21/6 23/22/6 65/23/6 67/24/6
f 12/25/7 14/26/7 56/27/7 54/28/7
f 37/29/8 39/30/8 81/31/8 79/32/8
f 17/33/9 13/34/9 55/35/9 59/36/9
f 4/37/10 6/38/10 48/39/10 46/40/10
f 9/41/11 7/9/11 49/12/11 51/42/11
f 29/6/12 31/43/12 73/44/12 71/7/12
f 36/45/13 34/13/13 76/16/13 78/46/13
f 22/18/14 24/47/14 66/48/14 64/19/14
f 28/49/15 2/50/15 44/51/15 70/52/15
f 14/26/16 16/53/16 58/54/16 56/27/16
f 39/30/17 41/55/17 83/56/17 81/31/17
f 19/57/18 17/33/18 59/36/18 61/58/18
f 6/38/19 8/59/19 50/60/19 48/39/19
f 11/61/20 9/41/20 51/42/20 53/62/20
f 31/43/21 33/63/21 75/64/21 73/44/21
f 38/65/22 36/45/22 78/46/22 80/66/22
f 16/53/23 15/67/23 57/68/23 58/54/23
f 2/50/24 4/37/24 46/40/24 44/51/24
f 24/47/25 26/69/25 68/70/25 66/48/25
f 41/55/26 42/1/26 84/4/26 83/56/26
f 30/71/27 28/49/27 70/52/27 72/72/27
f 15/67/28 18/73/28 60/74/28 57/68/28
f 21/75/29 19/57/29 61/58/29 63/76/29
f 8/59/30 10/77/30 52/78/30 50/60/30
f 33/63/31 35/79/31 77/80/31 75/64/31
f 26/69/32 25/21/32 67/24/32 68/70/32
f 13/34/33 11/61/33 53/62/33 55/35/33
f 3/81/34 1/82/34 43/83/34 45/84/34
f 40/2/35 38/65/35 80/66/35 82/3/35
f 1/82/36 27/5/36 69/8/36 43/83/36
f 5/10/37 3/81/37 45/84/37 47/11/37
f 18/73/38 20/17/38 62/20/38 60/74/38
f 32/14/39 30/71/39 72/72/39 74/15/39
f 10/77/40 12/25/40 54/28/40 52/78/40
f 23/22/41 21/75/41 63/76/41 65/23/41
f 35/79/42 37/29/42 79/32/42 77/80/42
f 3/81/43 5/10/43 7/9/43 9/41/43 11/61/43 13/34/43 17/33/43 19/57/43 21/75/43 23/22/43 25/21/43 26/69/43 24/47/43 22/18/43 20/17/43 18/73/43 15/67/43 16/53/43 14/26/43 12/25/43 10/77/43 8/59/43 6/38/43 4/37/43 2/50/43 28/49/43 30/71/43 32/14/43 34/13/43 36/45/43 38/65/43 40/2/43 42/1/43 41/55/43 39/30/43 37/29/43 35/79/43 33/63/43 31/43/43 29/6/43 27/5/43 1/82/43
f 76/16/44 74/15/44 116/85/44 118/86/44
f 59/36/45 55/35/45 97/87/45 101/88/45
f 77/80/46 79/32/46 121/89/46 119/90/46
f 62/20/47 64/19/47 106/91/47 104/92/47
f 47/11/48 45/84/48 87/93/48 89/94/48
f 81/31/49 83/56/49 125/95/49 123/96/49
f 66/48/50 68/70/50 110/97/50 108/98/50
f 50/60/51 52/78/51 94/99/51 92/100/51
f 58/54/52 57/68/52 99/101/52 100/102/52
f 74/15/53 72/72/53 114/103/53 116/85/53
f 75/64/54 77/80/54 119/90/54 117/104/54
f 45/84/55 43/83/55 85/105/55 87/93/55
f 60/74/56 62/20/56 104/92/56 102/106/56
f 83/56/57 84/4/57 126/107/57 125/95/57
f 68/70/58 67/24/58 109/108/58 110/97/58
f 48/39/59 50/60/59 92/100/59 90/109/59
f 72/72/60 70/52/60 112/110/60 114/103/60
f 55/35/61 53/62/61 95/111/61 97/87/61
f 73/44/62 75/64/62 117/104/62 115/112/62
f 57/68/63 60/74/63 102/106/63 99/101/63
f 82/3/64 80/66/64 122/113/64 124/114/64
f 65/23/65 63/76/65 105/115/65 107/116/65
f 46/40/66 48/39/66 90/109/66 88/117/66
f 53/62/67 51/42/67 93/118/67 95/111/67
f 70/52/68 44/51/68 86/119/68 112/110/68
f 71/7/69 73/44/69 115/112/69 113/120/69
f 56/27/70 58/54/70 100/102/70 98/121/70
f 80/66/71 78/46/71 120/122/71 122/113/71
f 63/76/72 61/58/72 103/123/72 105/115/72
f 44/51/73 46/40/73 88/117/73 86/119/73
f 84/4/74 82/3/74 124/114/74 126/107/74
f 67/24/75 65/23/75 107/116/75 109/108/75
f 51/42/76 49/12/76 91/124/76 93/118/76
f 69/8/77 71/7/77 113/120/77 111/125/77
f 54/28/78 56/27/78 98/121/78 96/126/78
f 61/58/79 59/36/79 101/88/79 103/123/79
f 78/46/80 76/16/80 118/86/80 120/122/80
f 79/32/81 81/31/81 123/96/81 121/89/81
f 49/12/82 47/11/82 89/94/82 91/124/82
f 64/19/83 66/48/83 108/98/83 106/91/83
f 43/83/84 69/8/84 111/125/84 85/105/84
f 52/78/85 54/28/85 96/126/85 94/99/85
f 87/93/86 85/105/86 111/125/86 113/120/86 115/112/86 117/104/86 119/90/86 121/89/86 123/96/86 125/95/86 126/107/86 124/114/86 122/113/86 120/122/86 118/86/86 116/85/86 114/103/86 112/110/86 86/119/86 88/117/86 90/109/86 92/100/86 94/99/86 96/126/86 98/121/86 100/102/86 99/101/86 102/106/86 104/92/86 106/91/86 108/98/86 110/97/86 109/108/86 107/116/86 105/115/86 103/123/86 101/88/86 97/87/86 95/111/86 93/118/86 91/124/86 89/94/86
